<svg width="24" height="24" viewBox="0 0 24 24" fill="none" xmlns="http://www.w3.org/2000/svg">
<rect x="2" y="2" width="20" height="20" rx="2" fill="#A295F3"/>
<path d="M18.7618 8.34847L10.1489 16.7679C10.0739 16.8415 9.98476 16.8998 9.88661 16.9397C9.78847 16.9795 9.68324 17 9.57697 17C9.4707 17 9.36547 16.9795 9.26732 16.9397C9.16917 16.8998 9.08004 16.8415 9.00502 16.7679L5.2369 13.0844C5.1618 13.011 5.10222 12.9238 5.06157 12.8278C5.02092 12.732 5 12.6292 5 12.5253C5 12.4214 5.02092 12.3186 5.06157 12.2227C5.10222 12.1268 5.1618 12.0396 5.2369 11.9662C5.31202 11.8928 5.40119 11.8345 5.49932 11.7948C5.59746 11.755 5.70263 11.7346 5.80886 11.7346C5.91507 11.7346 6.02025 11.755 6.11839 11.7948C6.21652 11.8345 6.30569 11.8928 6.3808 11.9662L9.57764 15.0912L17.6192 7.23158C17.7709 7.0833 17.9766 7 18.1912 7C18.4056 7 18.6114 7.0833 18.7631 7.23158C18.9148 7.37987 19 7.58098 19 7.79068C19 8.00039 18.9148 8.20151 18.7631 8.34979L18.7618 8.34847Z" fill="white"/>
</svg>
